<svg version="1.2" xmlns="http://www.w3.org/2000/svg" viewBox="0 0 700 600" width="700" height="600"><style>.a{fill:none}</style><path fill="#000"  d="m512.5 125c-16.5 0-32.8 2.1-48.7 6.4-15.9 4.3-31.2 10.7-45.4 19-14.2 8.3-27.3 18.4-38.8 30.1-11.6 11.8-21.5 25-29.6 39.3v-119.8h-50v200h200v-50h-109.6c22.7-44.2 67.5-72.8 117.1-74.6 49.7-1.9 96.5 23.3 122.4 65.7 25.9 42.4 26.8 95.5 2.5 138.8-24.4 43.4-70.2 70.2-119.9 70.1h-12.5v50h12.5c49.7 0 97.4-19.8 132.6-54.9 35.1-35.2 54.9-82.9 54.9-132.6 0-49.7-19.8-97.4-54.9-132.6-35.2-35.1-82.9-54.9-132.6-54.9z"/><path fill="#000" d="m600 50h-550v79.3l185.4 185.3 14.6 14.7v220.7h100v-50h50v50c0 6.6-1.3 13.1-3.8 19.1-2.5 6.1-6.2 11.6-10.8 16.3-4.7 4.6-10.2 8.3-16.3 10.8-6 2.5-12.5 3.8-19.1 3.8h-100c-6.6 0-13.1-1.3-19.1-3.8-6.1-2.5-11.6-6.2-16.3-10.8-4.6-4.7-8.3-10.2-10.8-16.3-2.5-6-3.8-12.5-3.8-19.1v-200l-185.4-185.4q-3.4-3.5-6.2-7.5-2.7-4.1-4.6-8.7-1.9-4.5-2.8-9.4-1-4.8-1-9.7v-79.3c0-6.6 1.3-13.1 3.8-19.1 2.5-6.1 6.2-11.6 10.8-16.3 4.7-4.6 10.2-8.3 16.3-10.8 6-2.5 12.5-3.8 19.1-3.8h550z"/><path fill-rule="evenodd" class="a" d="m-50-100h800v800h-800z"/></svg>